<svg xmlns="http://www.w3.org/2000/svg" version="1.1" width="512px" height="512px" style="shape-rendering:geometricPrecision; text-rendering:geometricPrecision; image-rendering:optimizeQuality; fill-rule:evenodd; clip-rule:evenodd" xmlns:xlink="http://www.w3.org/1999/xlink">
<g><path style="opacity:1" fill="#6d59c0" d="M 182.5,53.5 C 203.187,54.2585 218.687,63.5918 229,81.5C 246.832,117.818 245.165,153.151 224,187.5C 205.454,210.41 183.62,214.244 158.5,199C 139.144,180.772 129.81,158.272 130.5,131.5C 129.761,108.767 136.261,88.4338 150,70.5C 158.767,60.7013 169.6,55.0347 182.5,53.5 Z"/></g>
<g><path style="opacity:1" fill="#6d59c0" d="M 322.5,53.5 C 340.458,53.6493 354.625,60.9826 365,75.5C 381.287,103.185 384.954,132.519 376,163.5C 369.763,184.398 356.597,198.898 336.5,207C 315.875,210.904 299.375,204.404 287,187.5C 264.446,150.932 263.779,113.932 285,76.5C 294.407,63.5556 306.907,55.8889 322.5,53.5 Z"/></g>
<g><path style="opacity:1" fill="#6d59c0" d="M 58.5,157.5 C 67.7969,157.192 76.4636,159.359 84.5,164C 102.288,177.487 113.121,195.32 117,217.5C 120.37,234.731 119.37,251.731 114,268.5C 104.316,290.759 87.816,298.592 64.5,292C 50.6102,285.11 40.4435,274.61 34,260.5C 21.7264,233.98 20.393,206.98 30,179.5C 35.9899,167.442 45.4899,160.109 58.5,157.5 Z"/></g>
<g><path style="opacity:1" fill="#6d59c0" d="M 443.5,157.5 C 459.134,156.898 470.967,163.231 479,176.5C 485.37,188.716 488.536,201.716 488.5,215.5C 487.7,242.761 477.7,265.927 458.5,285C 438.37,299.104 419.87,297.27 403,279.5C 395.524,267.435 391.691,254.269 391.5,240C 391.55,210.583 402.217,185.917 423.5,166C 429.683,161.734 436.35,158.901 443.5,157.5 Z"/></g>
<g><path style="opacity:1" fill="#6d59c0" d="M 243.5,241.5 C 277.063,238.959 305.396,249.792 328.5,274C 354.97,298.803 381.137,323.969 407,349.5C 422.135,373.332 423.469,397.998 411,423.5C 390.327,454.95 361.827,464.783 325.5,453C 307.157,447.465 288.49,443.465 269.5,441C 254.343,439.783 239.343,440.783 224.5,444C 206.122,449.595 187.456,453.928 168.5,457C 131.018,460.022 106.184,443.855 94,408.5C 87.9765,387.174 91.3098,367.507 104,349.5C 134.167,320.667 164.333,291.833 194.5,263C 208.985,251.456 225.318,244.289 243.5,241.5 Z"/></g>
</svg>
